<?xml version="1.0" encoding="UTF-8"?>
<svg width="252px" height="217px" viewBox="0 0 252 217" version="1.1" xmlns="http://www.w3.org/2000/svg" xmlns:xlink="http://www.w3.org/1999/xlink">
    <title>logo/full</title>
    <defs>
        <linearGradient x1="0%" y1="12.8721378%" x2="100%" y2="87.1278622%" id="linearGradient-1">
            <stop stop-color="#17EAD9" offset="0%"></stop>
            <stop stop-color="#6078EA" offset="100%"></stop>
        </linearGradient>
        <filter x="-4.2%" y="-10.7%" width="108.4%" height="121.4%" filterUnits="objectBoundingBox" id="filter-2">
            <feOffset dx="0" dy="1" in="SourceAlpha" result="shadowOffsetOuter1"></feOffset>
            <feColorMatrix values="0 0 0 0 0.376470588   0 0 0 0 0.470588235   0 0 0 0 0.917647059  0 0 0 1 0" type="matrix" in="shadowOffsetOuter1" result="shadowMatrixOuter1"></feColorMatrix>
            <feMerge>
                <feMergeNode in="shadowMatrixOuter1"></feMergeNode>
                <feMergeNode in="SourceGraphic"></feMergeNode>
            </feMerge>
        </filter>
        <filter x="-3.9%" y="-11.3%" width="107.8%" height="122.6%" filterUnits="objectBoundingBox" id="filter-3">
            <feOffset dx="0" dy="1" in="SourceAlpha" result="shadowOffsetOuter1"></feOffset>
            <feColorMatrix values="0 0 0 0 0.376470588   0 0 0 0 0.470588235   0 0 0 0 0.917647059  0 0 0 1 0" type="matrix" in="shadowOffsetOuter1" result="shadowMatrixOuter1"></feColorMatrix>
            <feMerge>
                <feMergeNode in="shadowMatrixOuter1"></feMergeNode>
                <feMergeNode in="SourceGraphic"></feMergeNode>
            </feMerge>
        </filter>
    </defs>
    <g id="Symbols" stroke="none" stroke-width="1" fill="none" fill-rule="evenodd">
        <g id="logo/full">
            <rect id="bg" fill="url(#linearGradient-1)" x="0" y="0" width="251.822635" height="217" rx="20"></rect>
            <g id="logo/symbol" transform="translate(85.000000, 70.000000)">
                <path d="M25.803861,0.240862331 C40.0549399,0.240862331 51.607722,11.7914824 51.607722,26.0398943 C51.607722,40.2883061 40.0549399,51.8389262 25.803861,51.8389262 C11.5527821,51.8389262 0,40.2883061 0,26.0398943 C0,11.7914824 11.5527821,0.240862331 25.803861,0.240862331 Z" id="color" fill="#FCE38A"></path>
                <path d="M56.7136208,0 C70.9646998,0 82.5174818,11.55062 82.5174818,25.7990319 C82.5174818,40.0474438 70.9646998,51.5980638 56.7136208,51.5980638 C42.4625419,51.5980638 30.9097598,40.0474438 30.9097598,25.7990319 C30.9097598,11.55062 42.4625419,0 56.7136208,0 Z" id="color" fill="#F38181"></path>
                <path d="M56.7136208,25.9194631 C70.9646998,25.9194631 82.5174818,37.4700831 82.5174818,51.718495 C82.5174818,65.9669069 70.9646998,77.5175269 56.7136208,77.5175269 C42.4625419,77.5175269 30.9097598,65.9669069 30.9097598,51.718495 C30.9097598,37.4700831 42.4625419,25.9194631 56.7136208,25.9194631 Z" id="color" fill="#FCBF49"></path>
                <path d="M25.803861,25.9194631 C40.0549399,25.9194631 51.607722,37.4700831 51.607722,51.718495 C51.607722,65.9669069 40.0549399,77.5175269 25.803861,77.5175269 C11.5527821,77.5175269 0,65.9669069 0,51.718495 C0,37.4700831 11.5527821,25.9194631 25.803861,25.9194631 Z" id="color" fill="#D62828"></path>
                <path d="M52.5878819,16.9473412 L52.5872192,45.4263412 L57.975429,45.4269646 L57.975429,52.8018433 L52.5872192,52.8013412 L52.5878819,60.448538 L43.8011676,60.448538 L43.8002192,52.8013412 L22.9132192,52.8018433 L22.9132192,45.5630386 L41.0649045,16.9473412 L52.5878819,16.9473412 Z M43.9532192,45.4263412 L43.9532192,26.9723412 L43.6139479,26.9730077 L32.1756177,45.0871115 L32.1756177,45.4269646 L43.9532192,45.4263412 Z" id="Shape" fill="#FFFFFF"></path>
            </g>
            <g id="Find" filter="url(#filter-2)" transform="translate(17.000000, 97.000000)" fill="#FFFFFF" fill-rule="nonzero">
                <polygon id="Path" points="0 23.0624667 0 1.24428489 14.4373668 1.24428489 14.4373668 5.04538796 4.61076216 5.04538796 4.61076216 10.2442516 13.482888 10.2442516 13.482888 14.0453547 4.61076216 14.0453547 4.61076216 23.0624667"></polygon>
                <path d="M17.4630703,23.0624667 L17.4630703,6.69883034 L21.9970946,6.69883034 L21.9970946,23.0624667 L17.4630703,23.0624667 Z M19.7417346,4.5851274 C19.0663528,4.5851274 18.4878783,4.360629 18.0063109,3.91163219 C17.5247435,3.46263539 17.2839598,2.92286266 17.2839598,2.29231401 C17.2839598,1.66176536 17.5250487,1.12207586 18.0072264,0.673245517 C18.4894042,0.224415172 19.0665193,0 19.7385719,0 C20.4160621,0 20.9945089,0.224498402 21.4739123,0.673495206 C21.9533157,1.12249201 22.1930174,1.66226474 22.1930174,2.29281339 C22.1930174,2.92336204 21.9533157,3.46305154 21.4739123,3.91188188 C20.9945089,4.36071222 20.4171163,4.5851274 19.7417346,4.5851274 Z" id="Shape"></path>
                <path d="M30.1618247,13.6022394 L30.1618247,23.0624667 L25.6278003,23.0624667 L25.6278003,6.69883034 L29.9487565,6.69883034 L29.9487565,9.58806818 L30.1361899,9.58806818 C30.5026228,8.63347834 31.1116427,7.87777987 31.9632496,7.32097279 C32.8148564,6.7641657 33.8479042,6.48576216 35.0623928,6.48576216 C36.2000882,6.48576216 37.1918817,6.73470237 38.0377735,7.23258279 C38.8836653,7.7304632 39.5406255,8.43891491 40.0086542,9.3579379 C40.4766828,10.2769609 40.7085887,11.3706831 40.7044282,12.6391047 L40.7044282,23.0624667 L36.1703474,23.0624667 L36.1703474,13.4487638 C36.1745644,12.448786 35.9185219,11.666121 35.4022199,11.100769 C34.885918,10.535417 34.1732216,10.252741 33.2641307,10.252741 C32.6533352,10.252741 32.1146167,10.3851873 31.6479752,10.6500799 C31.1813337,10.9149725 30.8180358,11.2970803 30.5580815,11.7964034 C30.2981273,12.2957264 30.1660416,12.8976718 30.1618247,13.6022394 Z" id="Path"></path>
                <path d="M50.3095072,23.326638 C49.0651668,23.326638 47.9412322,23.0048995 46.9377032,22.3614225 C45.9341743,21.7179454 45.1387197,20.769792 44.5513396,19.5169622 C43.9639594,18.2641324 43.6702694,16.7243541 43.6702694,14.8976274 C43.6702694,13.0255127 43.9724766,11.4658703 44.5768911,10.2187001 C45.1813056,8.97152987 45.98672,8.03758101 46.9931342,7.41685347 C47.9995485,6.79612593 49.1021763,6.48576216 50.3010178,6.48576216 C51.212994,6.48576216 51.9764883,6.64023659 52.5915007,6.94918546 C53.2065131,7.25813432 53.7036722,7.64093572 54.082978,8.09758967 C54.4622837,8.55424361 54.7527556,9.00562633 54.9543936,9.45173784 L55.0907239,9.45173784 L55.0907239,1.24428489 L59.6247482,1.24428489 L59.6247482,23.0624667 L55.1504829,23.0624667 L55.1504829,20.446056 L54.9543936,20.446056 C54.7442107,20.8977162 54.4441674,21.344771 54.0542637,21.7872203 C53.66436,22.2296697 53.1629285,22.5968517 52.5499691,22.8887662 C51.9370096,23.1806807 51.190189,23.326638 50.3095072,23.326638 Z M51.7498814,19.7131348 C52.4770875,19.7131348 53.0960395,19.5124956 53.6067373,19.1112172 C54.1174351,18.7099387 54.5080879,18.1474165 54.7786955,17.4236506 C55.0493032,16.6998846 55.1846071,15.8522172 55.1846071,14.8806485 C55.1846071,13.9061945 55.0507181,13.061357 54.7829403,12.3461359 C54.5151624,11.6309149 54.1259523,11.0776312 53.61531,10.6862848 C53.1046677,10.2949385 52.4828581,10.0992654 51.7498814,10.0992654 C50.9998148,10.0992654 50.3694604,10.3006259 49.8588181,10.7033469 C49.3481757,11.106068 48.9618232,11.666454 48.6997604,12.3845048 C48.4376977,13.1025557 48.3066663,13.9346036 48.3066663,14.8806485 C48.3066663,15.8323531 48.4391126,16.6715032 48.7040052,17.398099 C48.9688977,18.1246948 49.3566652,18.6921831 49.8673075,19.1005637 C50.3779498,19.5089444 51.0054744,19.7131348 51.7498814,19.7131348 Z" id="Shape"></path>
            </g>
            <g id="Four" filter="url(#filter-3)" transform="translate(176.000000, 97.000000)" fill="#FFFFFF" fill-rule="nonzero">
                <polygon id="Path" points="0 21.8181818 0 0 14.4373668 0 14.4373668 3.80110307 4.61076216 3.80110307 4.61076216 8.99996671 13.482888 8.99996671 13.482888 12.8010698 4.61076216 12.8010698 4.61076216 21.8181818"></polygon>
                <path d="M24.8522082,22.1334561 C23.195936,22.1334561 21.766243,21.7808394 20.5631291,21.0756059 C19.3600152,20.3703724 18.4317537,19.3845992 17.7783446,18.1182861 C17.1249355,16.8519731 16.798231,15.3778631 16.798231,13.6959561 C16.798231,12.0085005 17.1249355,10.5301736 17.7783446,9.26097523 C18.4317537,7.9917769 19.3600152,7.00456099 20.5631291,6.2993275 C21.766243,5.59409402 23.195936,5.24147727 24.8522082,5.24147727 C26.5084804,5.24147727 27.9381735,5.59409402 29.1412874,6.2993275 C30.3444013,7.00456099 31.2726628,7.9917769 31.9260719,9.26097523 C32.579481,10.5301736 32.9061855,12.0085005 32.9061855,13.6959561 C32.9061855,15.3778631 32.579481,16.8519731 31.9260719,18.1182861 C31.2726628,19.3845992 30.3444013,20.3703724 29.1412874,21.0756059 C27.9381735,21.7808394 26.5084804,22.1334561 24.8522082,22.1334561 Z M24.877843,18.6221591 C25.6249133,18.6221591 26.2520218,18.4069547 26.7591685,17.9765459 C27.2663151,17.546137 27.6491443,16.9580633 27.9076559,16.2123247 C28.1661675,15.466586 28.2954233,14.6193071 28.2954233,13.6704878 C28.2954233,12.7173406 28.1661675,11.8675371 27.9076559,11.1210771 C27.6491443,10.3746171 27.2663151,9.78476784 26.7591685,9.35152921 C26.2520218,8.91829057 25.6249133,8.70167125 24.877843,8.70167125 C24.1135719,8.70167125 23.4736182,8.91829057 22.9579821,9.35152921 C22.4423461,9.78476784 22.0552722,10.3746171 21.7967606,11.1210771 C21.5382489,11.8675371 21.4089931,12.7173406 21.4089931,13.6704878 C21.4089931,14.6193071 21.5382489,15.466586 21.7967606,16.2123247 C22.0552722,16.9580633 22.4423461,17.546137 22.9579821,17.9765459 C23.4736182,18.4069547 24.1135719,18.6221591 24.877843,18.6221591 Z" id="Shape"></path>
                <path d="M46.3635843,14.8465243 L46.3635843,5.45454545 L50.8976087,5.45454545 L50.8976087,21.8181818 L46.5425283,21.8181818 L46.5425283,18.8437167 L46.3720738,18.8437167 C46.0056409,19.8025235 45.3941519,20.5734808 44.5376067,21.1565885 C43.6810615,21.7396962 42.6391636,22.03125 41.4119131,22.03125 C40.3167204,22.03125 39.3532805,21.7833918 38.5215933,21.2876753 C37.689906,20.7919589 37.041463,20.0845614 36.5762641,19.165483 C36.1110653,18.2464045 35.8763573,17.150546 35.8721404,15.8779075 L35.8721404,5.45454545 L40.4061647,5.45454545 L40.4061647,15.0682484 C40.4103817,16.0312722 40.669254,16.7933239 41.1827816,17.3544034 C41.6963092,17.915483 42.3834263,18.1960227 43.244133,18.1960227 C43.7882337,18.1960227 44.2978495,18.0692638 44.7729804,17.815746 C45.2481114,17.5622281 45.633049,17.1872226 45.9277933,16.6907293 C46.2225376,16.1942361 46.3678013,15.5795011 46.3635843,14.8465243 Z" id="Path"></path>
                <path d="M54.5283404,21.8181818 L54.5283404,5.45454545 L58.9258679,5.45454545 L58.9258679,8.30965909 L59.0963225,8.30965909 C59.3946179,7.29547674 59.8949953,6.5277377 60.5974544,6.00644198 C61.2999136,5.48514626 62.1092398,5.2244984 63.0254329,5.2244984 C63.2527057,5.2244984 63.4973734,5.23762096 63.7594362,5.26386608 C64.0214989,5.29011119 64.2512408,5.32737038 64.4486618,5.37564364 L64.4486618,9.40895774 C64.2399216,9.34082031 63.9473412,9.28261497 63.5709208,9.23434171 C63.1945003,9.18606845 62.8478761,9.16193182 62.5310482,9.16193182 C61.8677625,9.16193182 61.2743898,9.30575284 60.7509301,9.59339489 C60.2274704,9.88103693 59.8151779,10.2801791 59.5140527,10.7908214 C59.2129274,11.3014637 59.0623648,11.8920344 59.0623648,12.5625333 L59.0623648,21.8181818 L54.5283404,21.8181818 Z" id="Path"></path>
            </g>
        </g>
    </g>
</svg>